<svg xmlns="http://www.w3.org/2000/svg" width="120.774" height="137.997" viewBox="0 0 120.774 137.997">
  <path id="bigsnow" d="M132.133,97.065l-14.016-8.092,12.146-7.162A4.709,4.709,0,1,0,125.48,73.7l-16.732,9.866L83.52,69l25.223-14.563L125.48,64.3a4.709,4.709,0,0,0,4.782-8.115l-12.148-7.16,14.019-8.094a4.709,4.709,0,0,0-4.709-8.156l-14.016,8.093-.127-14.1a4.709,4.709,0,1,0-9.418.085l.175,19.427L78.812,60.842V31.714l16.913-9.559a4.709,4.709,0,1,0-4.634-8.2L78.812,20.9V4.709a4.709,4.709,0,0,0-9.418,0V20.9L57.114,13.957a4.709,4.709,0,1,0-4.634,8.2l16.913,9.559V60.842L44.166,46.277l.175-19.427A4.708,4.708,0,0,0,39.675,22.1h-.043a4.709,4.709,0,0,0-4.708,4.667l-.127,14.1L20.78,32.775a4.709,4.709,0,0,0-4.709,8.156L30.09,49.025l-12.15,7.161A4.71,4.71,0,1,0,22.722,64.3l16.739-9.865L64.685,69,39.456,83.565,22.722,73.7a4.709,4.709,0,1,0-4.784,8.112l12.148,7.163L16.07,97.065a4.709,4.709,0,1,0,4.709,8.156L34.8,97.128l.127,14.1a4.709,4.709,0,0,0,4.708,4.667h.043a4.708,4.708,0,0,0,4.666-4.751l-.175-19.428L69.393,77.154v29.128L52.48,115.841a4.709,4.709,0,1,0,4.634,8.2L69.393,117.1v16.187a4.709,4.709,0,0,0,9.418,0V117.1L91.09,124.04a4.709,4.709,0,0,0,4.634-8.2l-16.913-9.559V77.154l25.227,14.564-.18,19.427a4.708,4.708,0,0,0,4.665,4.752h.045a4.71,4.71,0,0,0,4.708-4.666l.131-14.105,14.018,8.093a4.709,4.709,0,1,0,4.709-8.156Z" transform="translate(-13.715)" fill="#fff"/>
</svg>
