<svg xmlns="http://www.w3.org/2000/svg" width="46.084" height="45.125" viewBox="0 0 46.084 45.125">
  <path id="github" d="M23.039,5.329a23.148,23.148,0,0,0-7.278,45.085c1.152.213,1.573-.5,1.573-1.115,0-.55-.02-2-.032-3.934-6.409,1.4-7.762-3.1-7.762-3.1a6.109,6.109,0,0,0-2.558-3.384c-2.094-1.434.156-1.406.156-1.406a4.839,4.839,0,0,1,3.528,2.385c2.056,3.534,5.395,2.514,6.708,1.921a4.938,4.938,0,0,1,1.463-3.093c-5.115-.585-10.5-2.569-10.5-11.432a8.967,8.967,0,0,1,2.373-6.21,8.336,8.336,0,0,1,.225-6.121s1.936-.622,6.337,2.37a21.749,21.749,0,0,1,11.538,0c4.4-2.993,6.331-2.37,6.331-2.37a8.348,8.348,0,0,1,.23,6.121,8.95,8.95,0,0,1,2.368,6.21c0,8.886-5.386,10.841-10.519,11.414a5.534,5.534,0,0,1,1.564,4.283c0,3.093-.029,5.588-.029,6.345,0,.619.415,1.339,1.584,1.112a23.15,23.15,0,0,0-7.3-45.082Z" transform="translate(0 -5.329)" fill="#fff"/>
</svg>
