<svg xmlns="http://www.w3.org/2000/svg" width="78.134" height="89.276" viewBox="0 0 78.134 89.276">
  <path id="snowflake_3_" data-name="snowflake (3)" d="M90.325,62.8,81.257,57.56l7.858-4.634a3.047,3.047,0,1,0-3.095-5.249L75.2,54.061,58.875,44.638l16.318-9.421L86.02,41.6a3.047,3.047,0,0,0,3.094-5.25l-7.859-4.632,9.07-5.236A3.046,3.046,0,0,0,87.278,21.2L78.21,26.439l-.082-9.124a3.046,3.046,0,1,0-6.093.055l.113,12.568-16.32,9.423V20.517L66.77,14.333a3.047,3.047,0,1,0-3-5.3l-7.944,4.49V3.047a3.047,3.047,0,0,0-6.093,0V13.518L41.792,9.029a3.047,3.047,0,1,0-3,5.3l10.942,6.184V39.361l-16.32-9.423.113-12.568A3.046,3.046,0,0,0,30.509,14.3h-.028a3.046,3.046,0,0,0-3.046,3.019l-.082,9.123L18.286,21.2a3.046,3.046,0,0,0-3.047,5.277l9.069,5.236-7.86,4.633a3.047,3.047,0,1,0,3.094,5.25l10.829-6.382,16.318,9.421L30.368,54.062,19.542,47.678a3.046,3.046,0,1,0-3.095,5.248l7.859,4.634L15.239,62.8a3.046,3.046,0,1,0,3.047,5.277l9.068-5.236.082,9.124a3.047,3.047,0,0,0,3.046,3.019h.028a3.046,3.046,0,0,0,3.019-3.074l-.113-12.569,16.32-9.423V68.758L38.794,74.942a3.047,3.047,0,1,0,3,5.3l7.944-4.489V86.229a3.047,3.047,0,0,0,6.093,0V75.757l7.944,4.489a3.047,3.047,0,0,0,3-5.3L55.829,68.758V49.914l16.32,9.422L72.032,71.9a3.046,3.046,0,0,0,3.018,3.075h.029a3.047,3.047,0,0,0,3.046-3.018l.084-9.125,9.069,5.236A3.046,3.046,0,1,0,90.325,62.8Z" transform="translate(-13.715)" fill="#fff"/>
</svg>
