<svg xmlns="http://www.w3.org/2000/svg" width="73.467" height="51.656" viewBox="0 0 73.467 51.656">
  <g id="wind" transform="translate(0.001 -225.467)">
    <g id="Group_8" data-name="Group 8" transform="translate(-0.001 225.467)">
      <g id="Group_7" data-name="Group 7" transform="translate(0 0)">
        <path id="Path_14" data-name="Path 14" d="M1,562.312c4.346,3.728,9.272,7.953,18.8,7.953s14.454-4.225,18.8-7.953c4.11-3.525,7.66-6.57,15.064-6.57s10.954,3.045,15.064,6.57a2.87,2.87,0,1,0,3.737-4.357c-4.346-3.728-9.272-7.953-18.8-7.953s-14.454,4.225-18.8,7.953c-4.11,3.525-7.66,6.57-15.064,6.57s-10.953-3.045-15.063-6.57A2.87,2.87,0,1,0,1,562.312Z" transform="translate(0.001 -534.305)" fill="#fff"/>
        <path id="Path_15" data-name="Path 15" d="M1,237.776c4.346,3.728,9.272,7.953,18.8,7.953s14.454-4.225,18.8-7.953c4.11-3.525,7.66-6.57,15.064-6.57s10.953,3.045,15.064,6.57a2.87,2.87,0,0,0,3.736-4.357c-4.346-3.728-9.272-7.953-18.8-7.953s-14.454,4.225-18.8,7.953c-4.11,3.525-7.66,6.57-15.064,6.57s-10.953-3.045-15.063-6.57A2.87,2.87,0,0,0,1,237.776Z" transform="translate(0.001 -225.467)" fill="#fff"/>
        <path id="Path_16" data-name="Path 16" d="M72.467,882.488c-4.346-3.728-9.272-7.953-18.8-7.953s-14.454,4.225-18.8,7.953c-4.11,3.525-7.66,6.57-15.064,6.57S8.85,886.013,4.74,882.488h0A2.87,2.87,0,0,0,1,886.845c4.346,3.728,9.272,7.953,18.8,7.953s14.454-4.225,18.8-7.953c4.11-3.525,7.66-6.57,15.064-6.57s10.954,3.045,15.064,6.57a2.87,2.87,0,1,0,3.737-4.356Z" transform="translate(-0.002 -843.141)" fill="#fff"/>
      </g>
    </g>
  </g>
</svg>
